<svg width="8" height="12" viewBox="0 0 8 12" fill="none" xmlns="http://www.w3.org/2000/svg">
<g clip-path="url(#clip0_7_19982)">
<path d="M3.56895 10.6994C3.78968 10.8812 4.0104 10.8812 4.23113 10.6994L6.87982 8.05075C7.06159 7.83003 7.06159 7.6093 6.87982 7.38858C6.65909 7.20681 6.43837 7.20681 6.21764 7.38858L4.36746 9.23877V1.33165C4.34149 1.04601 4.18568 0.890202 3.90004 0.864234C3.6144 0.890202 3.45859 1.04601 3.43262 1.33165V9.23877L1.58244 7.38858C1.36171 7.20681 1.14099 7.20681 0.920265 7.38858C0.738492 7.6093 0.738492 7.83003 0.920265 8.05075L3.56895 10.6994Z" fill="#1D262E"/>
</g>
<defs>
<clipPath id="clip0_7_19982">
<rect width="7.5" height="10.4" fill="white" transform="matrix(1 0 0 -1 0.150146 11.05)"/>
</clipPath>
</defs>
</svg>
