<svg width="17" height="19" viewBox="0 0 17 19" fill="none" xmlns="http://www.w3.org/2000/svg">
<g clip-path="url(#clip0_6_817)">
<path d="M7.59253 0.957489C7.61597 0.605927 7.80347 0.418427 8.15503 0.394989C8.50659 0.418427 8.69409 0.605927 8.71753 0.957489V1.55515C10.1707 1.71921 11.366 2.31686 12.3035 3.34811C13.2644 4.37936 13.7566 5.64499 13.78 7.14499V8.16452C13.8035 9.75827 14.366 11.1294 15.4675 12.2778L15.573 12.3833C15.8777 12.688 16.03 13.0512 16.03 13.4731C16.03 13.9184 15.8777 14.2817 15.573 14.563C15.2917 14.8676 14.9285 15.02 14.4832 15.02H1.8269C1.38159 15.02 1.01831 14.8676 0.737061 14.563C0.432373 14.2817 0.280029 13.9184 0.280029 13.4731C0.280029 13.0512 0.432373 12.6762 0.737061 12.3481L0.842529 12.2778C1.94409 11.1294 2.50659 9.75827 2.53003 8.16452V7.14499C2.55347 5.64499 3.04565 4.37936 4.00659 3.34811C4.94409 2.31686 6.1394 1.71921 7.59253 1.55515V0.957489ZM8.15503 2.64499C6.8894 2.66843 5.823 3.10202 4.95581 3.94577C4.11206 4.81296 3.67847 5.87936 3.65503 7.14499V8.16452C3.63159 10.063 2.9519 11.6919 1.61597 13.0512L1.54565 13.1567C1.4519 13.2505 1.40503 13.3559 1.40503 13.4731C1.42847 13.7309 1.56909 13.8716 1.8269 13.895H14.4832C14.741 13.8716 14.8816 13.7309 14.905 13.4731C14.905 13.3559 14.8582 13.2505 14.7644 13.1567L14.6941 13.0512C13.3582 11.6919 12.6785 10.063 12.655 8.16452V7.14499C12.6316 5.87936 12.1863 4.81296 11.3191 3.94577C10.4753 3.10202 9.42065 2.66843 8.15503 2.64499ZM7.10034 16.5317C7.28784 17.0005 7.6394 17.2466 8.15503 17.27C8.67065 17.2466 9.02222 17.0005 9.20972 16.5317C9.35034 16.2036 9.59644 16.0864 9.948 16.1801C10.2527 16.3208 10.3582 16.5551 10.2644 16.8833C10.1003 17.3286 9.83081 17.6919 9.45581 17.9731C9.08081 18.2544 8.64722 18.395 8.15503 18.395C7.66284 18.395 7.22925 18.2544 6.85425 17.9731C6.47925 17.6919 6.20972 17.3286 6.04565 16.8833C5.9519 16.5551 6.05737 16.3208 6.36206 16.1801C6.71362 16.0864 6.95972 16.2036 7.10034 16.5317Z" fill="#707880"/>
</g>
<defs>
<clipPath id="clip0_6_817">
<rect width="15.75" height="18.4" fill="white" transform="matrix(1 0 0 -1 0.280029 18.595)"/>
</clipPath>
</defs>
</svg>
