<svg width="19" height="19" viewBox="0 0 19 19" fill="none" xmlns="http://www.w3.org/2000/svg">
<g clip-path="url(#clip0_6_797)">
<path d="M17.155 9.595C17.1316 8.16531 16.78 6.85281 16.1003 5.6575C15.3972 4.46219 14.4363 3.50125 13.2175 2.77469C11.9753 2.07156 10.6628 1.72 9.28003 1.72C7.89722 1.72 6.58472 2.07156 5.34253 2.77469C4.12378 3.50125 3.16284 4.46219 2.45972 5.6575C1.78003 6.85281 1.42847 8.16531 1.40503 9.595C1.42847 11.0247 1.78003 12.3372 2.45972 13.5325C3.16284 14.7278 4.12378 15.6888 5.34253 16.4153C6.58472 17.1184 7.89722 17.47 9.28003 17.47C10.6628 17.47 11.9753 17.1184 13.2175 16.4153C14.4363 15.6888 15.3972 14.7278 16.1003 13.5325C16.78 12.3372 17.1316 11.0247 17.155 9.595ZM0.280029 9.595C0.303467 7.95438 0.701904 6.45438 1.47534 5.095C2.27222 3.73563 3.37378 2.63406 4.78003 1.79031C6.20972 0.993439 7.70972 0.595001 9.28003 0.595001C10.8503 0.595001 12.3503 0.993439 13.78 1.79031C15.1863 2.63406 16.2878 3.73563 17.0847 5.095C17.8582 6.45438 18.2566 7.95438 18.28 9.595C18.2566 11.2356 17.8582 12.7356 17.0847 14.095C16.2878 15.4544 15.1863 16.5559 13.78 17.3997C12.3503 18.1966 10.8503 18.595 9.28003 18.595C7.70972 18.595 6.20972 18.1966 4.78003 17.3997C3.37378 16.5559 2.27222 15.4544 1.47534 14.095C0.701904 12.7356 0.303467 11.2356 0.280029 9.595ZM6.22144 6.57156C6.33862 6.12625 6.573 5.77469 6.92456 5.51688C7.25269 5.23563 7.65112 5.095 8.11987 5.095H10.1238C10.7566 5.11844 11.2839 5.34109 11.7058 5.76297C12.1277 6.18484 12.3503 6.71219 12.3738 7.345C12.3503 8.25906 11.9402 8.93875 11.1433 9.38406L9.84253 10.0169V10.72C9.81909 11.0716 9.63159 11.2591 9.28003 11.2825C8.92847 11.2591 8.74097 11.0716 8.71753 10.72V9.70047C8.71753 9.46609 8.823 9.29031 9.03394 9.17313L10.6511 8.36453C11.0261 8.13016 11.2253 7.79031 11.2488 7.345C11.2488 7.01688 11.1433 6.74734 10.9324 6.53641C10.7214 6.32547 10.4519 6.22 10.1238 6.22H8.11987C7.698 6.24344 7.42847 6.45438 7.31128 6.85281C7.17065 7.18094 6.93628 7.32156 6.60815 7.27469C6.28003 7.1575 6.15112 6.92313 6.22144 6.57156ZM8.43628 12.97C8.48315 12.4544 8.7644 12.1731 9.28003 12.1263C9.79565 12.1731 10.0769 12.4544 10.1238 12.97C10.0769 13.4856 9.79565 13.7669 9.28003 13.8138C8.7644 13.7669 8.48315 13.4856 8.43628 12.97Z" fill="#707880"/>
</g>
<defs>
<clipPath id="clip0_6_797">
<rect width="18" height="18.4" fill="white" transform="matrix(1 0 0 -1 0.280029 18.795)"/>
</clipPath>
</defs>
</svg>
