<svg width="20" height="21" viewBox="0 0 20 21" fill="none" xmlns="http://www.w3.org/2000/svg"  >
<path d="M3.42537 3.58185H10.4167C10.8984 3.58185 11.2902 3.97736 11.2902 4.46369V7.99395C11.5601 7.78889 11.8532 7.61601 12.1637 7.47832V4.46369C12.1637 3.49103 11.3831 2.70001 10.4167 2.70001H3.42537C2.45895 2.70001 1.67537 3.49103 1.67537 4.46369V15.0516C1.67537 16.0271 2.45895 16.8153 3.42247 16.8153H5.16957H6.04311H7.79024H8.66374H10.4109C11.2089 16.8153 11.8822 16.2733 12.0912 15.535C11.8039 15.4031 11.534 15.2391 11.2844 15.0516C11.2844 15.5379 10.8926 15.9334 10.4109 15.9334H8.66956V14.1698C8.66956 13.1941 7.88599 12.4061 6.92249 12.4061C5.95895 12.4061 5.17537 13.1971 5.17537 14.1698V15.9334H3.42537C2.94361 15.9334 2.55182 15.5379 2.55182 15.0516V4.46369C2.55182 3.97736 2.94361 3.58185 3.42537 3.58185ZM9.76081 8.87582H8.44899C8.08624 8.87582 7.79312 9.1717 7.79312 9.53789V10.8621C7.79312 11.2283 8.08624 11.5243 8.44899 11.5243H9.54024C9.54024 10.6307 9.80431 9.80157 10.2541 9.10726C10.1352 8.96664 9.95524 8.8787 9.75787 8.8787L9.76081 8.87582ZM7.79312 14.1698V15.9334H6.04602V14.1698C6.04602 13.6834 6.43781 13.2879 6.91956 13.2879C7.40131 13.2879 7.79312 13.6834 7.79312 14.1698ZM3.42537 6.00763V7.33182C3.42537 7.69807 3.71849 7.99395 4.08126 7.99395H5.39303C5.7558 7.99395 6.04892 7.69807 6.04892 7.33182V6.00763C6.04892 5.64142 5.7558 5.34552 5.39303 5.34552H4.07836C3.71559 5.34552 3.42247 5.64142 3.42247 6.00763H3.42537ZM4.29892 6.22736H5.17247V7.1092H4.29892V6.23029V6.22736ZM8.44899 5.34845C8.08624 5.34845 7.79312 5.64435 7.79312 6.01056V7.33476C7.79312 7.70101 8.08624 7.99689 8.44899 7.99689H9.76081C10.1236 7.99689 10.4167 7.70101 10.4167 7.33476V6.00763C10.4167 5.64142 10.1236 5.34552 9.76081 5.34552H8.44899V5.34845ZM8.66668 7.11214V6.23029H9.54024V7.11214H8.66956H8.66668ZM3.42537 9.53789V10.8621C3.42537 11.2283 3.71849 11.5243 4.08126 11.5243H5.39303C5.7558 11.5243 6.04892 11.2283 6.04892 10.8621V9.53789C6.04892 9.1717 5.7558 8.87582 5.39303 8.87582H4.07836C3.71559 8.87582 3.42247 9.1717 3.42247 9.53789H3.42537ZM4.29892 9.75764H5.17247V10.6395H4.29892V9.75764ZM8.66956 10.6395V9.75764H9.54312V10.6395H8.66956ZM13.9137 8.88164C14.2654 8.86982 14.6159 8.92957 14.9442 9.05726C15.2726 9.18495 15.5721 9.37807 15.8251 9.62501C16.0779 9.87195 16.2791 10.1678 16.4164 10.4948C16.5537 10.8218 16.6246 11.1734 16.6246 11.5286C16.6246 11.8838 16.5537 12.2354 16.4164 12.5624C16.2791 12.8894 16.0779 13.1853 15.8251 13.4323C15.5721 13.6792 15.2726 13.8723 14.9442 14C14.6159 14.1277 14.2654 14.1874 13.9137 14.1756C13.5621 14.1874 13.2116 14.1277 12.8833 14C12.5549 13.8723 12.2554 13.6792 12.0025 13.4323C11.7496 13.1853 11.5484 12.8894 11.4111 12.5624C11.2737 12.2354 11.203 11.8838 11.203 11.5286C11.203 11.1734 11.2737 10.8218 11.4111 10.4948C11.5484 10.1678 11.7496 9.87195 12.0025 9.62501C12.2554 9.37807 12.5549 9.18495 12.8833 9.05726C13.2116 8.92957 13.5621 8.86982 13.9137 8.88164ZM13.9137 15.0574C14.7206 15.0574 15.4664 14.7821 16.0584 14.3162L18.4121 16.6922C18.5833 16.8651 18.8591 16.8651 19.0302 16.6922C19.2015 16.5193 19.2015 16.241 19.0302 16.0682L16.6766 13.6922C17.1381 13.0946 17.4109 12.3446 17.4109 11.5271C17.4109 9.57895 15.8466 7.99689 13.9137 7.99689C11.9809 7.99689 10.4167 9.57601 10.4167 11.5271C10.4167 13.4783 11.9809 15.0574 13.9137 15.0574Z" fill="#4C555E"  />
</svg>
