<svg width="33" height="33" viewBox="0 0 33 33" fill="none" xmlns="http://www.w3.org/2000/svg">
<rect x="0.800049" y="0.800003" width="32" height="32" rx="16" fill="#F7F9FA"/>
<g clip-path="url(#clip0_7_19941)">
<path d="M10.0188 16.9313C9.87297 16.7854 9.80005 16.6083 9.80005 16.4C9.80005 16.1917 9.87297 16.0146 10.0188 15.8688L15.5188 10.6188C15.8938 10.3271 16.248 10.3271 16.5813 10.6188C16.873 10.9938 16.8625 11.3479 16.55 11.6813L12.425 15.65H23.05C23.5084 15.6917 23.7584 15.9417 23.8 16.4C23.7584 16.8583 23.5084 17.1083 23.05 17.15H12.425L16.5813 21.1188C16.873 21.4521 16.873 21.8063 16.5813 22.1813C16.248 22.4729 15.9042 22.4729 15.55 22.1813L10.05 16.9313H10.0188Z" fill="#707880"/>
</g>
<defs>
<clipPath id="clip0_7_19941">
<rect width="14" height="16.8" fill="white" transform="matrix(1 0 0 -1 9.80005 24.8)"/>
</clipPath>
</defs>
</svg>
