<svg width="20" height="21" viewBox="0 0 20 21" fill="none" xmlns="http://www.w3.org/2000/svg">
<g clip-path="url(#clip0_6_737)">
<path d="M17.3769 2.83125C17.5344 2.99875 17.5269 3.2625 17.3587 3.42L10.8644 9.5325C10.3725 9.99563 9.60124 9.98375 9.12374 9.50625L6.36187 6.74438C6.19937 6.58188 6.19937 6.31813 6.36187 6.155C6.52437 5.99188 6.78812 5.9925 6.95124 6.155L9.71312 8.91688C9.87249 9.07625 10.1294 9.08 10.2931 8.92563L16.7875 2.81313C16.955 2.65563 17.2194 2.66313 17.3769 2.83125Z" fill="#4C555E"/>
<path d="M2.48999 5.61688C2.48999 4.46625 3.42249 3.53375 4.57311 3.53375H12.0731C12.3031 3.53375 12.49 3.72 12.49 3.95063C12.49 4.18125 12.3031 4.3675 12.0731 4.3675H4.57311C3.88249 4.3675 3.32311 4.92688 3.32311 5.6175V7.26625C3.95624 6.905 4.81499 6.95063 5.39499 7.59563L8.75061 11.3244C9.41249 12.06 10.5662 12.06 11.2281 11.3244L14.5837 7.59563C15.6056 6.46 17.4894 7.18313 17.4894 8.71063V15.2006C17.4894 16.1213 16.7431 16.8675 15.8225 16.8675H4.15561C3.23499 16.8675 2.48874 16.1213 2.48874 15.2006V5.6175L2.48999 5.61688ZM16.6569 15.2V8.71C16.6569 7.94625 15.715 7.585 15.2044 8.1525L11.8487 11.8813C10.8556 12.9844 9.12561 12.9844 8.13249 11.8813L4.77686 8.1525C4.26624 7.585 3.32436 7.94625 3.32436 8.71V15.2C3.32436 15.66 3.69749 16.0331 4.15749 16.0331H15.8244C16.2844 16.0331 16.6569 15.66 16.6569 15.2Z" fill="#4C555E"/>
</g>
<defs>
<clipPath id="clip0_6_737">
<rect width="20" height="20" fill="white" transform="translate(-0.0100098 0.200012)"/>
</clipPath>
</defs>
</svg>
