<svg width="25" height="25" viewBox="0 0 25 25" fill="none" xmlns="http://www.w3.org/2000/svg">
<rect x="0.399902" y="0.800003" width="24" height="24" rx="2" fill="white"/>
<g clip-path="url(#clip0_7_19964)">
<path d="M15.2437 11.1813C15.2437 10.4534 15.0659 9.77631 14.7104 9.15001C14.3381 8.52371 13.8387 8.02436 13.2124 7.65196C12.5692 7.29649 11.8921 7.11876 11.1812 7.11876C10.4702 7.11876 9.79313 7.29649 9.1499 7.65196C8.5236 8.02436 8.02425 8.52371 7.65186 9.15001C7.29639 9.77631 7.11865 10.4534 7.11865 11.1813C7.11865 11.9091 7.29639 12.5862 7.65186 13.2125C8.02425 13.8388 8.5236 14.3382 9.1499 14.7106C9.79313 15.066 10.4702 15.2438 11.1812 15.2438C11.8921 15.2438 12.5692 15.066 13.2124 14.7106C13.8387 14.3382 14.3381 13.8388 14.7104 13.2125C15.0659 12.5862 15.2437 11.9091 15.2437 11.1813ZM14.4565 15.3199C13.5425 16.0647 12.4507 16.4456 11.1812 16.4625C9.69157 16.4287 8.44743 15.9124 7.44873 14.9137C6.45003 13.915 5.93376 12.6708 5.8999 11.1813C5.93376 9.69168 6.45003 8.44754 7.44873 7.44884C8.44743 6.45014 9.69157 5.93386 11.1812 5.90001C12.6707 5.93386 13.9149 6.45014 14.9136 7.44884C15.9123 8.44754 16.4285 9.69168 16.4624 11.1813C16.4455 12.4508 16.0646 13.5426 15.3198 14.4566L18.7222 17.859C18.9591 18.1468 18.9591 18.4345 18.7222 18.7223C18.4344 18.9593 18.1466 18.9593 17.8589 18.7223L14.4565 15.3199Z" fill="#4C555E"/>
</g>
<defs>
<clipPath id="clip0_7_19964">
<rect width="13" height="13.6" fill="white" transform="matrix(1 0 0 -1 5.8999 19.2)"/>
</clipPath>
</defs>
</svg>
