<svg width="20" height="21" viewBox="0 0 20 21" fill="none" xmlns="http://www.w3.org/2000/svg">
<g clip-path="url(#clip0_6_747)">
<path d="M9.98999 3.6719L16.7037 7.70002L9.98999 11.7281L3.27624 7.70002L9.98999 3.6719ZM10.4187 2.95752C10.155 2.7994 9.82499 2.7994 9.56124 2.95752L2.84749 6.98565C2.30812 7.3094 2.30812 8.09127 2.84749 8.41502L9.56124 12.4431C9.82499 12.6013 10.155 12.6013 10.4187 12.4431L17.1325 8.41502C17.6719 8.09127 17.6719 7.3094 17.1325 6.98565L10.4187 2.95752Z" fill="#4C555E"/>
<path d="M3.04562 9.36688L2.84749 9.48563C2.30812 9.80938 2.30812 10.5913 2.84749 10.915L9.56124 14.9431C9.82499 15.1013 10.155 15.1013 10.4187 14.9431L17.1325 10.915C17.6719 10.5913 17.6719 9.80938 17.1325 9.48563L16.9344 9.36688L16.1244 9.85251L16.7031 10.2L9.98937 14.2281L3.27562 10.2L3.85437 9.85251L3.04437 9.36688H3.04562Z" fill="#4C555E"/>
<path d="M3.04562 11.8669L2.84749 11.9856C2.30812 12.3094 2.30812 13.0913 2.84749 13.415L9.56124 17.4431C9.82499 17.6013 10.155 17.6013 10.4187 17.4431L17.1325 13.415C17.6719 13.0913 17.6719 12.3094 17.1325 11.9856L16.9344 11.8669L16.1244 12.3525L16.7031 12.7L9.98937 16.7281L3.27562 12.7L3.85437 12.3525L3.04437 11.8669H3.04562Z" fill="#4C555E"/>
</g>
<defs>
<clipPath id="clip0_6_747">
<rect width="20" height="20" fill="white" transform="translate(-0.0100098 0.200012)"/>
</clipPath>
</defs>
</svg>
