<svg width="20" height="21" viewBox="0 0 20 21" fill="none" xmlns="http://www.w3.org/2000/svg">
<g clip-path="url(#clip0_6_758)">
<path d="M12.445 15.4569C11.8162 13.3813 9.83437 11.8669 7.49 11.8669C5.14562 11.8669 3.16375 13.3813 2.535 15.4569C2.49437 15.5913 2.52437 15.7056 2.62625 15.8131C2.74062 15.9344 2.94375 16.0338 3.1875 16.0338H11.7925C12.0363 16.0338 12.2387 15.9344 12.3537 15.8131C12.4556 15.705 12.4856 15.5906 12.445 15.4569ZM13.2706 15.2219C13.5381 16.105 12.7431 16.8663 11.7925 16.8663H3.1875C2.23687 16.8663 1.44187 16.105 1.70937 15.2219C2.4425 12.8013 4.75312 11.0331 7.49 11.0331C10.2269 11.0331 12.5375 12.8013 13.2706 15.2219Z" fill="#4C555E"/>
<path d="M7.48999 10.2C6.10936 10.2 4.98999 9.08063 4.98999 7.70001C4.98999 6.31938 6.10936 5.20001 7.48999 5.20001C8.87061 5.20001 9.98999 6.31938 9.98999 7.70001C9.98999 9.08063 8.87061 10.2 7.48999 10.2ZM7.48999 11.0331C9.33061 11.0331 10.8231 9.54063 10.8231 7.70001C10.8231 5.85938 9.33061 4.36688 7.48999 4.36688C5.64874 4.36688 4.15686 5.85938 4.15686 7.70001C4.15686 9.54063 5.64936 11.0331 7.48999 11.0331Z" fill="#4C555E"/>
<path d="M13.6669 16.8669H16.77C17.7325 16.8669 18.5394 16.1056 18.2712 15.2213C17.6787 13.2681 16.06 11.8669 14.1569 11.8669C13.5519 11.8669 12.975 12.0088 12.4512 12.2644C12.6562 12.4731 12.8481 12.6956 13.0244 12.9294C13.3862 12.7794 13.7687 12.7 14.1569 12.7C15.5756 12.7 16.92 13.7581 17.435 15.4538C17.4756 15.5881 17.445 15.7038 17.3406 15.8125C17.2237 15.9344 17.0175 16.0338 16.7706 16.0338H14.1006C14.0231 16.3456 13.8706 16.6294 13.6675 16.8669H13.6669Z" fill="#4C555E"/>
<path d="M14.1569 11.0331C13.2362 11.0331 12.49 10.2869 12.49 9.36626C12.49 8.44563 13.2362 7.69938 14.1569 7.69938C15.0775 7.69938 15.8237 8.44563 15.8237 9.36626C15.8237 10.2869 15.0775 11.0331 14.1569 11.0331ZM14.1569 11.8669C15.5375 11.8669 16.6569 10.7475 16.6569 9.36688C16.6569 7.98626 15.5375 6.86688 14.1569 6.86688C12.7762 6.86688 11.6569 7.98626 11.6569 9.36688C11.6569 10.7475 12.7762 11.8669 14.1569 11.8669Z" fill="#4C555E"/>
</g>
<defs>
<clipPath id="clip0_6_758">
<rect width="20" height="20" fill="white" transform="translate(-0.0100098 0.200012)"/>
</clipPath>
</defs>
</svg>
